# xmcd
#
# Track frame offsets:
# 150
# 10973
# 23879
# 36575
# 48105
# 59343
# 71189
# 83699
# 94512
# 105482
# 118954
# 129601
#
# Disc length: 1879 seconds
#
#
# Revision: 0
# Processed by: cddbd v1.5.2PL0 Copyright (c) Steve Scherf et al.
# Submitted via: FreeRIP 2.945 
#
DISCID=a007550c
DTITLE=Bill Anderson - On The Road
DYEAR=1900
DGENRE=Country
TTITLE0=I Get The Fever
TTITLE1=If You Can Live With It
TTITLE2=Corner Of My Life
TTITLE3=All The Lonely Women In The World
TTITLE4=Happy State Of Mind
TTITLE5=You're Still The Only One I'll Ever Love
TTITLE6=My Life
TTITLE7=Mercy
TTITLE8=Quits
TTITLE9=Lonesome Is The Mother Of Soul
TTITLE10=I'm Alright
TTITLE11=Get While The Gettin' Good
EXTD=
EXTT0=
EXTT1=
EXTT2=
EXTT3=
EXTT4=
EXTT5=
EXTT6=
EXTT7=
EXTT8=
EXTT9=
EXTT10=
EXTT11=
PLAYORDER=
